<svg class="flex-shrink-0 w-5 h-5 inline-block mt-[-3px]"  xmlns="http://www.w3.org/2000/svg" xmlns:xlink="http://www.w3.org/1999/xlink" x="0px" y="0px"
	 width="410.847px" height="510.719px" viewBox="-698.001 870.198 410.847 510.719"
	 enable-background="new -698.001 870.198 410.847 510.719" xml:space="preserve">
<linearGradient id="SVGID_1_" gradientUnits="userSpaceOnUse" x1="-688.0007" y1="1125.5574" x2="-434.8059" y2="1125.5574">
	<stop  offset="0" style="stop-color:#06B6D4"/>
	<stop  offset="1" style="stop-color:#3F83F8"/>
</linearGradient>
<linearGradient id="SVGID_2_" gradientUnits="userSpaceOnUse" x1="-757.2937" y1="964.6394" x2="-482.5385" y2="1239.3945">
	<stop  offset="0" style="stop-color:#06B6D4"/>
	<stop  offset="1" style="stop-color:#3F83F8"/>
</linearGradient>
<path fill="url(#SVGID_1_)" stroke="url(#SVGID_2_)" stroke-width="20" stroke-miterlimit="10" d="M-488.666,1196.174
	c4.219-4.729,8.567-9.894,13.052-15.49c4.479-5.591,9.013-11.249,13.6-16.974c3.957-4.939,7.865-9.816,11.724-14.633
	c3.854-4.811,7.552-9.426,11.098-13.853c3.752-4.683,5.1-9.688,4.033-15.029c-1.061-5.335-3.546-9.567-7.448-12.694
	c-0.519-0.415-0.841-0.674-0.976-0.781c-0.128-0.103-0.323-0.259-0.585-0.469c-4.63-3.279-9.318-4.363-14.053-3.251
	c-4.74,1.117-9.505,4.667-14.298,10.648c-20.008,24.973-44.582,39.351-73.722,43.122c-29.145,3.778-55.056-3.427-77.743-21.604
	c-0.524-0.42-1.042-0.836-1.567-1.256c-0.518-0.415-1.042-0.835-1.567-1.255c-20.808-18.373-32.166-41.469-34.084-69.273
	c-1.912-27.801,5.772-52.497,23.074-74.093c6.668-8.322,13.805-17.23,21.416-26.729c7.606-9.493,15.265-19.054,22.979-28.681
	c5.81-7.251,21.994-27.45,43.011-53.683h-46.43h-40.847c-27.614,0-50,22.386-50,50v390.719c0,27.614,22.386,50,50,50h9.146
	c56.809-70.751,118.948-148.231,121.587-151.525C-502.373,1213.282-496.169,1205.539-488.666,1196.174z"/>
<path fill="url(#SVGID_1_)" stroke="url(#SVGID_2_)" stroke-width="20" stroke-miterlimit="10" d="M-297.154,1080.198
	c0-92.762-63.156-170.763-148.811-193.377c-29.376,36.776-57.106,71.441-59.396,74.299c-5.002,6.243-11.383,13.945-19.148,23.1
	c-3.961,4.944-8.128,10.146-12.505,15.608s-8.754,10.926-13.13,16.389c-3.962,4.944-7.923,9.889-11.88,14.827
	c-3.961,4.945-7.713,9.628-11.255,14.048c-2.921,3.646-4.536,7.798-4.851,12.451c-0.313,4.663,1.401,8.919,5.143,12.77
	c0.358,0.286,0.691,0.554,0.978,0.783c0.39,0.313,0.719,0.576,0.976,0.781c5.463,4.377,11.151,5.411,17.06,3.098
	c5.915-2.31,11.208-5.856,15.898-10.647c1.303-1.089,2.422-2.224,3.36-3.395s1.925-2.402,2.97-3.707
	c19.799-24.711,43.211-38.738,70.231-42.076s51.559,3.619,73.621,20.864c22.01,16.784,34.63,39.278,37.861,67.495
	c3.237,28.221-3.54,53.334-20.319,75.339c-4.121,5.668-8.615,11.678-13.483,18.028c-4.874,6.346-9.917,12.776-15.124,19.276
	c-1.251,1.561-2.555,3.188-3.908,4.877c-1.358,1.695-2.657,3.317-3.908,4.878c-5.627,7.023-11.117,13.737-16.452,20.135
	c-5.347,6.397-9.994,12.073-13.951,17.012c-0.437,0.545-3.404,4.246-8.341,10.401
	C-360.091,1250.687-297.154,1172.799-297.154,1080.198z"/>
</svg>
